<mxfile host="app.diagrams.net" compressed="false" modified="2022-06-29T21:26:36.250Z" agent="5.0 (Windows NT 10.0; Win64; x64) AppleWebKit/537.36 (KHTML, like Gecko) Chrome/103.0.5060.53 Safari/537.36 Edg/103.0.1264.37" version="19.0.3" etag="waaLYG-zU8zJtElsndGI" type="device">
  <diagram id="eKaD7oeoBDBlw4IZ0RxL" name="Page-1">
    <mxGraphModel dx="1038" dy="570" grid="1" gridSize="10" guides="1" tooltips="1" connect="1" arrows="1" fold="1" page="1" pageScale="1" pageWidth="827" pageHeight="1169" math="0" shadow="0">
      <root>
        <mxCell id="0" />
        <mxCell id="1" parent="0" />
        <mxCell id="2" value="i + i * i" style="text;strokeColor=none;fillColor=none;align=center;verticalAlign=middle;rounded=0;fontStyle=0;fontFamily=Times New Roman;labelBackgroundColor=none;" parent="1" vertex="1">
          <mxGeometry x="130" y="270" width="60" height="30" as="geometry" />
        </mxCell>
        <mxCell id="3" value="i" style="text;strokeColor=none;fillColor=none;align=center;verticalAlign=middle;rounded=0;fontStyle=0;fontFamily=Times New Roman;labelBackgroundColor=none;" parent="1" vertex="1">
          <mxGeometry x="150" y="240" width="20" height="20" as="geometry" />
        </mxCell>
        <mxCell id="4" value="i" style="text;strokeColor=none;fillColor=none;align=center;verticalAlign=middle;rounded=0;fontStyle=0;fontFamily=Times New Roman;labelBackgroundColor=none;" parent="1" vertex="1">
          <mxGeometry x="210" y="240" width="20" height="20" as="geometry" />
        </mxCell>
        <mxCell id="5" value="i" style="text;strokeColor=none;fillColor=none;align=center;verticalAlign=middle;rounded=0;fontStyle=0;fontFamily=Times New Roman;labelBackgroundColor=none;" parent="1" vertex="1">
          <mxGeometry x="100" y="240" width="20" height="20" as="geometry" />
        </mxCell>
        <mxCell id="41" style="edgeStyle=none;html=1;endArrow=none;endFill=0;labelBackgroundColor=none;" parent="1" source="9" target="3" edge="1">
          <mxGeometry relative="1" as="geometry" />
        </mxCell>
        <mxCell id="9" value="F" style="text;strokeColor=none;fillColor=none;align=center;verticalAlign=middle;rounded=0;fontStyle=0;fontFamily=Times New Roman;labelBackgroundColor=none;" parent="1" vertex="1">
          <mxGeometry x="150" y="200" width="20" height="20" as="geometry" />
        </mxCell>
        <mxCell id="29" value="" style="edgeStyle=none;endArrow=none;endFill=0;fontStyle=0;fontFamily=Times New Roman;labelBackgroundColor=none;" parent="1" source="10" target="9" edge="1">
          <mxGeometry relative="1" as="geometry" />
        </mxCell>
        <mxCell id="10" value="T" style="text;strokeColor=none;fillColor=none;align=center;verticalAlign=middle;rounded=0;fontStyle=0;fontFamily=Times New Roman;labelBackgroundColor=none;" parent="1" vertex="1">
          <mxGeometry x="150" y="160" width="20" height="20" as="geometry" />
        </mxCell>
        <mxCell id="40" style="edgeStyle=none;html=1;endArrow=none;endFill=0;labelBackgroundColor=none;" parent="1" source="13" target="4" edge="1">
          <mxGeometry relative="1" as="geometry" />
        </mxCell>
        <mxCell id="13" value="F" style="text;strokeColor=none;fillColor=none;align=center;verticalAlign=middle;rounded=0;fontStyle=0;fontFamily=Times New Roman;labelBackgroundColor=none;" parent="1" vertex="1">
          <mxGeometry x="210" y="160" width="20" height="20" as="geometry" />
        </mxCell>
        <mxCell id="39" style="edgeStyle=none;html=1;endArrow=none;endFill=0;labelBackgroundColor=none;" parent="1" source="14" target="38" edge="1">
          <mxGeometry relative="1" as="geometry" />
        </mxCell>
        <mxCell id="14" value="T" style="text;strokeColor=none;fillColor=none;align=center;verticalAlign=middle;rounded=0;fontStyle=0;fontFamily=Times New Roman;labelBackgroundColor=none;" parent="1" vertex="1">
          <mxGeometry x="100" y="160" width="20" height="20" as="geometry" />
        </mxCell>
        <mxCell id="34" value="" style="edgeStyle=none;endArrow=none;endFill=0;fontStyle=0;fontFamily=Times New Roman;labelBackgroundColor=none;" parent="1" source="15" target="14" edge="1">
          <mxGeometry relative="1" as="geometry" />
        </mxCell>
        <mxCell id="15" value="E" style="text;strokeColor=none;fillColor=none;align=center;verticalAlign=middle;rounded=0;fontStyle=0;fontFamily=Times New Roman;labelBackgroundColor=none;" parent="1" vertex="1">
          <mxGeometry x="100" y="120" width="20" height="20" as="geometry" />
        </mxCell>
        <mxCell id="32" value="" style="edgeStyle=none;endArrow=none;endFill=0;fontStyle=0;fontFamily=Times New Roman;labelBackgroundColor=none;" parent="1" source="16" target="10" edge="1">
          <mxGeometry relative="1" as="geometry" />
        </mxCell>
        <mxCell id="33" value="" style="edgeStyle=none;endArrow=none;endFill=0;fontStyle=0;fontFamily=Times New Roman;labelBackgroundColor=none;" parent="1" source="16" target="13" edge="1">
          <mxGeometry relative="1" as="geometry" />
        </mxCell>
        <mxCell id="16" value="T" style="text;strokeColor=none;fillColor=none;align=center;verticalAlign=middle;rounded=0;fontStyle=0;fontFamily=Times New Roman;labelBackgroundColor=none;" parent="1" vertex="1">
          <mxGeometry x="180" y="120" width="20" height="20" as="geometry" />
        </mxCell>
        <mxCell id="17" value="+" style="text;strokeColor=none;fillColor=none;align=center;verticalAlign=middle;rounded=0;fontStyle=0;fontFamily=Times New Roman;labelBackgroundColor=none;" parent="1" vertex="1">
          <mxGeometry x="140" y="120" width="20" height="20" as="geometry" />
        </mxCell>
        <mxCell id="19" value="*" style="text;strokeColor=none;fillColor=none;align=center;verticalAlign=middle;rounded=0;fontStyle=0;fontFamily=Times New Roman;labelBackgroundColor=none;" parent="1" vertex="1">
          <mxGeometry x="180" y="160" width="20" height="20" as="geometry" />
        </mxCell>
        <mxCell id="36" value="" style="edgeStyle=none;endArrow=none;endFill=0;fontStyle=0;fontFamily=Times New Roman;labelBackgroundColor=none;" parent="1" source="35" target="16" edge="1">
          <mxGeometry relative="1" as="geometry" />
        </mxCell>
        <mxCell id="37" value="" style="edgeStyle=none;endArrow=none;endFill=0;fontStyle=0;fontFamily=Times New Roman;labelBackgroundColor=none;" parent="1" source="35" target="15" edge="1">
          <mxGeometry relative="1" as="geometry" />
        </mxCell>
        <mxCell id="35" value="E" style="text;strokeColor=none;fillColor=none;align=center;verticalAlign=middle;rounded=0;fontStyle=0;fontFamily=Times New Roman;labelBackgroundColor=none;" parent="1" vertex="1">
          <mxGeometry x="140" y="80" width="20" height="20" as="geometry" />
        </mxCell>
        <mxCell id="42" style="edgeStyle=none;html=1;endArrow=none;endFill=0;labelBackgroundColor=none;" parent="1" source="38" target="5" edge="1">
          <mxGeometry relative="1" as="geometry" />
        </mxCell>
        <mxCell id="38" value="F" style="text;strokeColor=none;fillColor=none;align=center;verticalAlign=middle;rounded=0;fontStyle=0;fontFamily=Times New Roman;labelBackgroundColor=none;" parent="1" vertex="1">
          <mxGeometry x="100" y="200" width="20" height="20" as="geometry" />
        </mxCell>
      </root>
    </mxGraphModel>
  </diagram>
</mxfile>
